{
	"asset":{
		"generator":"Khronos glTF Blender I/O v3.5.30",
		"version":"2.0"
	},
	"scene":0,
	"scenes":[
		{
			"name":"Scene",
			"nodes":[
				4
			]
		}
	],
	"nodes":[
		{
			"mesh":0,
			"name":"Plane.001"
		},
		{
			"mesh":1,
			"name":"Plane.002"
		},
		{
			"mesh":2,
			"name":"Plane.003"
		},
		{
			"mesh":3,
			"name":"Plane.004",
			"scale":[
				1.041614294052124,
				1,
				0.3789636492729187
			],
			"translation":[
				0.0022575855255126953,
				-0.4196324050426483,
				-0.0006888862699270248
			]
		},
		{
			"children":[
				0,
				1,
				2,
				3
			],
			"mesh":4,
			"name":"bloat",
			"translation":[
				-0.009744763374328613,
				0.2878251373767853,
				0.004146933555603027
			]
		}
	],
	"materials":[
		{
			"doubleSided":true,
			"name":"wood",
			"pbrMetallicRoughness":{
				"baseColorFactor":[
					0.4320000112056732,
					0.22171448171138763,
					0.08035200089216232,
					1
				],
				"metallicFactor":0
			}
		},
		{
			"doubleSided":true,
			"name":"painted wood",
			"pbrMetallicRoughness":{
				"baseColorFactor":[
					0.23735511302947998,
					0.33747637271881104,
					0.4320000112056732,
					1
				],
				"metallicFactor":0
			}
		}
	],
	"meshes":[
		{
			"name":"Plane.009",
			"primitives":[
				{
					"attributes":{
						"POSITION":0,
						"TEXCOORD_0":1,
						"NORMAL":2
					},
					"indices":3,
					"material":0
				}
			]
		},
		{
			"name":"Plane.010",
			"primitives":[
				{
					"attributes":{
						"POSITION":4,
						"TEXCOORD_0":5,
						"NORMAL":6
					},
					"indices":7,
					"material":0
				}
			]
		},
		{
			"name":"Plane.011",
			"primitives":[
				{
					"attributes":{
						"POSITION":8,
						"TEXCOORD_0":9,
						"NORMAL":10
					},
					"indices":11,
					"material":0
				}
			]
		},
		{
			"name":"Plane.012",
			"primitives":[
				{
					"attributes":{
						"POSITION":12,
						"TEXCOORD_0":13,
						"NORMAL":14
					},
					"indices":15,
					"material":0
				}
			]
		},
		{
			"name":"Plane.008",
			"primitives":[
				{
					"attributes":{
						"POSITION":16,
						"TEXCOORD_0":17,
						"NORMAL":18
					},
					"indices":19,
					"material":1
				}
			]
		}
	],
	"accessors":[
		{
			"bufferView":0,
			"componentType":5126,
			"count":124,
			"max":[
				0.614658534526825,
				-0.23709462583065033,
				1.8361858129501343
			],
			"min":[
				-0.614658534526825,
				-0.2936578094959259,
				-1.559901237487793
			],
			"type":"VEC3"
		},
		{
			"bufferView":1,
			"componentType":5126,
			"count":124,
			"type":"VEC2"
		},
		{
			"bufferView":2,
			"componentType":5126,
			"count":124,
			"type":"VEC3"
		},
		{
			"bufferView":3,
			"componentType":5123,
			"count":564,
			"type":"SCALAR"
		},
		{
			"bufferView":4,
			"componentType":5126,
			"count":313,
			"max":[
				1.074634313583374,
				-0.009854696691036224,
				2.4487857818603516
			],
			"min":[
				-1.074634313583374,
				-0.2786741554737091,
				-2.019726514816284
			],
			"type":"VEC3"
		},
		{
			"bufferView":5,
			"componentType":5126,
			"count":313,
			"type":"VEC2"
		},
		{
			"bufferView":6,
			"componentType":5126,
			"count":313,
			"type":"VEC3"
		},
		{
			"bufferView":7,
			"componentType":5123,
			"count":1296,
			"type":"SCALAR"
		},
		{
			"bufferView":8,
			"componentType":5126,
			"count":502,
			"max":[
				1.2938288450241089,
				0.2780267894268036,
				2.813117742538452
			],
			"min":[
				-1.2938287258148193,
				-0.03638652712106705,
				-2.065633535385132
			],
			"type":"VEC3"
		},
		{
			"bufferView":9,
			"componentType":5126,
			"count":502,
			"type":"VEC2"
		},
		{
			"bufferView":10,
			"componentType":5126,
			"count":502,
			"type":"VEC3"
		},
		{
			"bufferView":11,
			"componentType":5123,
			"count":2520,
			"type":"SCALAR"
		},
		{
			"bufferView":12,
			"componentType":5126,
			"count":115,
			"max":[
				1.1567234992980957,
				0.6861804723739624,
				-1.155802845954895
			],
			"min":[
				-1.159504771232605,
				0.5951573252677917,
				-2.7725160121917725
			],
			"type":"VEC3"
		},
		{
			"bufferView":13,
			"componentType":5126,
			"count":115,
			"type":"VEC2"
		},
		{
			"bufferView":14,
			"componentType":5126,
			"count":115,
			"type":"VEC3"
		},
		{
			"bufferView":15,
			"componentType":5123,
			"count":324,
			"type":"SCALAR"
		},
		{
			"bufferView":16,
			"componentType":5126,
			"count":453,
			"max":[
				1.4910944700241089,
				0.5548582077026367,
				3.1751811504364014
			],
			"min":[
				-1.4910944700241089,
				0.23865216970443726,
				-2.0538597106933594
			],
			"type":"VEC3"
		},
		{
			"bufferView":17,
			"componentType":5126,
			"count":453,
			"type":"VEC2"
		},
		{
			"bufferView":18,
			"componentType":5126,
			"count":453,
			"type":"VEC3"
		},
		{
			"bufferView":19,
			"componentType":5123,
			"count":2304,
			"type":"SCALAR"
		}
	],
	"bufferViews":[
		{
			"buffer":0,
			"byteLength":1488,
			"byteOffset":0,
			"target":34962
		},
		{
			"buffer":0,
			"byteLength":992,
			"byteOffset":1488,
			"target":34962
		},
		{
			"buffer":0,
			"byteLength":1488,
			"byteOffset":2480,
			"target":34962
		},
		{
			"buffer":0,
			"byteLength":1128,
			"byteOffset":3968,
			"target":34963
		},
		{
			"buffer":0,
			"byteLength":3756,
			"byteOffset":5096,
			"target":34962
		},
		{
			"buffer":0,
			"byteLength":2504,
			"byteOffset":8852,
			"target":34962
		},
		{
			"buffer":0,
			"byteLength":3756,
			"byteOffset":11356,
			"target":34962
		},
		{
			"buffer":0,
			"byteLength":2592,
			"byteOffset":15112,
			"target":34963
		},
		{
			"buffer":0,
			"byteLength":6024,
			"byteOffset":17704,
			"target":34962
		},
		{
			"buffer":0,
			"byteLength":4016,
			"byteOffset":23728,
			"target":34962
		},
		{
			"buffer":0,
			"byteLength":6024,
			"byteOffset":27744,
			"target":34962
		},
		{
			"buffer":0,
			"byteLength":5040,
			"byteOffset":33768,
			"target":34963
		},
		{
			"buffer":0,
			"byteLength":1380,
			"byteOffset":38808,
			"target":34962
		},
		{
			"buffer":0,
			"byteLength":920,
			"byteOffset":40188,
			"target":34962
		},
		{
			"buffer":0,
			"byteLength":1380,
			"byteOffset":41108,
			"target":34962
		},
		{
			"buffer":0,
			"byteLength":648,
			"byteOffset":42488,
			"target":34963
		},
		{
			"buffer":0,
			"byteLength":5436,
			"byteOffset":43136,
			"target":34962
		},
		{
			"buffer":0,
			"byteLength":3624,
			"byteOffset":48572,
			"target":34962
		},
		{
			"buffer":0,
			"byteLength":5436,
			"byteOffset":52196,
			"target":34962
		},
		{
			"buffer":0,
			"byteLength":4608,
			"byteOffset":57632,
			"target":34963
		}
	],
	"buffers":[
		{
			"byteLength":62240,
			"uri":"boat.bin"
		}
	]
}
