{
	"asset":{
		"generator":"Khronos glTF Blender I/O v3.5.30",
		"version":"2.0"
	},
	"scene":0,
	"scenes":[
		{
			"name":"Scene",
			"nodes":[
				0
			]
		}
	],
	"nodes":[
		{
			"mesh":0,
			"name":"Character",
			"rotation":[
				0,
				-0.5168278813362122,
				0,
				0.8560893535614014
			],
			"scale":[
				0.2852060794830322,
				0.2852060794830322,
				0.2852060794830322
			],
			"translation":[
				5.1846699714660645,
				0.006882429122924805,
				1.6696035861968994
			]
		}
	],
	"materials":[
		{
			"doubleSided":true,
			"name":"Character",
			"pbrMetallicRoughness":{
				"baseColorTexture":{
					"index":0
				},
				"metallicFactor":0
			}
		}
	],
	"meshes":[
		{
			"name":"Cube.001",
			"primitives":[
				{
					"attributes":{
						"POSITION":0,
						"TEXCOORD_0":1,
						"NORMAL":2
					},
					"indices":3,
					"material":0
				}
			]
		}
	],
	"textures":[
		{
			"sampler":0,
			"source":0
		}
	],
	"images":[
		{
			"mimeType":"image/jpeg",
			"name":"Texture",
			"uri":"Texture.jpg"
		}
	],
	"accessors":[
		{
			"bufferView":0,
			"componentType":5126,
			"count":3262,
			"max":[
				4.821490287780762,
				15.393712043762207,
				3.679858446121216
			],
			"min":[
				-4.821490287780762,
				0.0008132196962833405,
				-3.6058852672576904
			],
			"type":"VEC3"
		},
		{
			"bufferView":1,
			"componentType":5126,
			"count":3262,
			"type":"VEC2"
		},
		{
			"bufferView":2,
			"componentType":5126,
			"count":3262,
			"type":"VEC3"
		},
		{
			"bufferView":3,
			"componentType":5123,
			"count":4944,
			"type":"SCALAR"
		}
	],
	"bufferViews":[
		{
			"buffer":0,
			"byteLength":39144,
			"byteOffset":0,
			"target":34962
		},
		{
			"buffer":0,
			"byteLength":26096,
			"byteOffset":39144,
			"target":34962
		},
		{
			"buffer":0,
			"byteLength":39144,
			"byteOffset":65240,
			"target":34962
		},
		{
			"buffer":0,
			"byteLength":9888,
			"byteOffset":104384,
			"target":34963
		}
	],
	"samplers":[
		{
			"magFilter":9729,
			"minFilter":9987
		}
	],
	"buffers":[
		{
			"byteLength":114272,
			"uri":"character.bin"
		}
	]
}
